<svg width="313" height="265" viewBox="0 0 313 265" fill="none" xmlns="http://www.w3.org/2000/svg">
<path d="M143.325 93.2039L95.9017 89.5734C91.024 89.2001 86.6157 94.8546 86.0553 102.202C85.568 108.597 88.1554 114.165 92.0492 115.749L89.9575 120.832L97.8031 116.485L132.956 119.176L138.332 119.587L141.297 119.814C146.174 120.187 150.582 114.533 151.142 107.185C151.703 99.8367 148.203 93.5771 143.325 93.2039Z" fill="#8DBFFC"/>
<path d="M93.3354 98.9861L93.3686 98.5507L144.466 102.462L144.433 102.898L93.3354 98.9861Z" fill="white"/>
<path d="M92.4188 110.999L92.452 110.563L135.622 113.868L135.589 114.303L92.4188 110.999Z" fill="white"/>
<path d="M92.8825 104.918L92.9156 104.483L124.327 106.883L124.293 107.317L92.8825 104.918Z" fill="white"/>
<path d="M128.214 107.623L128.247 107.188L144.013 108.394L143.98 108.83L128.214 107.623Z" fill="white"/>
<path d="M40.3126 50.0604L71.7921 45.5152C76.3098 44.863 80.4999 48.0037 81.1509 52.5303L85.1698 80.4741C85.8208 85.0007 82.6862 89.199 78.1685 89.8513L46.689 94.3965C42.1713 95.0488 37.9813 91.908 37.3303 87.3814L33.3114 59.4376C32.6604 54.911 35.7949 50.7127 40.3126 50.0604Z" fill="white"/>
<path d="M55.8161 64.6431L73.4119 62.1143L73.4737 62.5459L55.8779 65.0747L55.8161 64.6431Z" fill="#8DBFFC"/>
<path d="M57.9593 77.2647L75.5551 74.7359L75.6169 75.1675L58.0211 77.6963L57.9593 77.2647Z" fill="#8DBFFC"/>
<path d="M39.9178 61.9013C42.0586 65.0922 44.6922 67.9217 47.7198 70.2839C48.8111 71.1323 50.3588 69.6032 49.2558 68.7454C46.3637 66.511 43.8447 63.8299 41.793 60.8027C41.0142 59.6492 39.1316 60.737 39.9187 61.9013H39.9178Z" fill="#8DBFFC"/>
<path d="M42.8056 71.2449L50.2182 64.4759C51.2538 63.5303 49.7145 61.9951 48.6827 62.9369L41.2696 69.7059C40.2346 70.6514 41.7738 72.1866 42.8056 71.2449Z" fill="#8DBFFC"/>
<path d="M43.3599 80.3839L50.303 84.458C51.5114 85.167 52.6055 83.2872 51.399 82.5801L44.4563 78.506C43.2474 77.797 42.1533 79.6768 43.3599 80.3839Z" fill="#8DBFFC"/>
<path d="M47.517 85.8109L53.9447 77.818C54.8139 76.7382 53.2887 75.1889 52.4092 76.2795L45.981 84.272C45.1118 85.3518 46.637 86.9011 47.517 85.8109Z" fill="#8DBFFC"/>
<path d="M144.791 24.5768L188.891 26.4118C194.124 26.6295 198.19 31.0565 197.973 36.2997L196.889 62.448C196.672 67.6912 192.254 71.7651 187.021 71.5474L142.92 69.7124C137.687 69.4946 133.621 65.0677 133.839 59.8245L134.922 33.6762C135.14 28.433 139.558 24.3591 144.791 24.5768Z" fill="#8DBFFC"/>
<path d="M157.421 35.2487L157.439 34.8087L189.003 36.122L188.984 36.562L157.421 35.2487Z" fill="white"/>
<path d="M156.976 45.9853L156.994 45.5453L188.558 46.8586L188.539 47.2986L156.976 45.9853Z" fill="white"/>
<path d="M156.531 56.7223L156.549 56.2823L188.112 57.5956L188.094 58.0356L156.531 56.7223Z" fill="white"/>
<ellipse cx="148.686" cy="34.6652" rx="1.97265" ry="1.97652" fill="white"/>
<ellipse cx="148.241" cy="45.4023" rx="1.97265" ry="1.97652" fill="white"/>
<ellipse cx="147.796" cy="56.1389" rx="1.97265" ry="1.97652" fill="white"/>
<path d="M292.082 50.5492C291.828 48.1298 290.625 45.9108 288.738 44.3803C286.85 42.8498 284.434 42.1332 282.019 42.3882L239.646 46.8595C237.231 47.1143 235.016 48.3198 233.489 50.2108C231.961 52.1018 231.246 54.5233 231.501 56.9426L234.141 82.0674C234.396 84.4867 235.599 86.7057 237.486 88.2362C239.373 89.7667 241.79 90.4833 244.205 90.2284L286.578 85.757C287.572 85.6504 288.543 85.3807 289.45 84.9589L295.166 92.2749L293.176 81.8012C294.403 80.0083 294.952 77.8354 294.722 75.6735L292.082 50.5492Z" fill="white"/>
<path d="M243.899 56.8417L252.705 55.9097L253.635 64.7329L244.829 65.6649L243.899 56.8417Z" fill="#8DBFFC"/>
<path d="M258.077 55.3454L266.883 54.4133L267.813 63.2366L259.007 64.1686L258.077 55.3454Z" fill="#8DBFFC"/>
<path d="M272.255 53.8493L281.061 52.9172L281.991 61.7405L273.185 62.6725L272.255 53.8493Z" fill="#8DBFFC"/>
<path d="M244.304 70.9478L253.615 69.9622L254.599 79.2918L245.288 80.2773L244.304 70.9478Z" fill="#8DBFFC"/>
<path d="M259.295 69.366L268.606 68.3804L269.59 77.71L260.279 78.6955L259.295 69.366Z" fill="#8DBFFC"/>
<path d="M273.646 67.0839L282.452 66.1519L283.382 74.9751L274.576 75.9071L273.646 67.0839Z" fill="#8DBFFC"/>
<path fill-rule="evenodd" clip-rule="evenodd" d="M2.89152 148.707C3.19565 148.792 3.50998 148.835 3.82583 148.836C4.41811 148.835 5.00013 148.681 5.51547 148.388C6.31561 147.939 6.90327 147.188 7.14747 146.303C7.65801 144.462 6.58486 142.554 4.74843 142.038C3.86643 141.789 2.9217 141.903 2.12448 142.356C1.32441 142.805 0.736887 143.556 0.492942 144.441C-0.0179017 146.283 1.0551 148.191 2.89152 148.707ZM2.46934 142.97C2.8802 142.736 3.34426 142.614 3.81646 142.613C4.06816 142.613 4.31867 142.648 4.561 142.716C6.02382 143.127 6.87856 144.647 6.4718 146.114C6.27731 146.819 5.80928 147.417 5.17201 147.775C4.53675 148.136 3.78377 148.227 3.08081 148.029C1.61776 147.618 0.762955 146.097 1.17002 144.631C1.3643 143.925 1.83218 143.327 2.46934 142.97Z" fill="#192684"/>
<path fill-rule="evenodd" clip-rule="evenodd" d="M86.3561 21.037C86.3577 22.7995 87.7833 24.2279 89.5423 24.2294C91.3015 24.2281 92.7273 22.7996 92.7286 21.037C92.7273 19.2743 91.3015 17.8458 89.5423 17.8445C87.7833 17.846 86.3577 19.2744 86.3561 21.037ZM87.356 21.0379C87.3576 19.8288 88.3356 18.8491 89.5423 18.8478C90.7489 18.8493 91.7266 19.829 91.7282 21.0379C91.7266 22.2468 90.7489 23.2265 89.5423 23.228C88.3356 23.2267 87.3576 22.247 87.356 21.0379Z" fill="#EF4923"/>
<path d="M87.3588 6.71357C85.5998 6.71201 84.1742 5.2836 84.1726 3.52109C84.1726 1.75793 85.5991 0.328613 87.3588 0.328613C89.1185 0.328613 90.5451 1.75793 90.5451 3.52109C90.5438 5.28371 89.118 6.71227 87.3588 6.71357Z" fill="#F3C04C"/>
<path d="M102.26 7.38595C101.984 7.38595 101.761 7.16188 101.761 6.88548V4.67892C101.761 4.40244 101.984 4.17824 102.26 4.17798C102.536 4.17824 102.76 4.40244 102.76 4.67892V6.88548C102.76 7.01821 102.707 7.14551 102.613 7.23937C102.52 7.33322 102.393 7.38595 102.26 7.38595Z" fill="#F3C04C"/>
<path d="M102.26 11.2492C101.984 11.2492 101.761 11.0252 101.761 10.7488V8.5422C101.761 8.26572 101.984 8.04152 102.26 8.04126C102.536 8.04152 102.76 8.26572 102.76 8.5422V10.7488C102.76 10.8815 102.707 11.0088 102.613 11.1026C102.52 11.1965 102.393 11.2492 102.26 11.2492Z" fill="#F3C04C"/>
<path d="M105.353 8.216H103.373C103.097 8.21575 102.874 7.99154 102.874 7.71507C102.874 7.43867 103.098 7.2146 103.373 7.2146H105.353C105.628 7.2146 105.852 7.43867 105.852 7.71507C105.852 7.99154 105.629 8.21575 105.353 8.216Z" fill="#F3C04C"/>
<path d="M101.147 8.216H99.1676C98.8914 8.216 98.6676 7.99173 98.6676 7.71507C98.6679 7.43859 98.8916 7.2146 99.1676 7.2146H101.147C101.423 7.2146 101.646 7.43867 101.646 7.71507C101.646 7.99154 101.423 8.21575 101.147 8.216Z" fill="#F3C04C"/>
<path fill-rule="evenodd" clip-rule="evenodd" d="M303.063 96.8658C303.637 99.0141 305.579 100.509 307.799 100.511C308.225 100.511 308.649 100.455 309.06 100.345C311.674 99.6442 313.227 96.9556 312.533 94.3358C311.833 91.7179 309.15 90.1615 306.535 90.8565C303.922 91.5579 302.369 94.2461 303.063 96.8658ZM306.777 91.764C307.109 91.675 307.452 91.6298 307.795 91.6297C309.591 91.6313 311.162 92.8402 311.627 94.5781C312.188 96.6968 310.932 98.8708 308.819 99.4381C306.704 99.9999 304.534 98.741 303.968 96.6236C303.407 94.5048 304.664 92.3309 306.777 91.764ZM307.795 91.6297C307.796 91.6297 307.796 91.6297 307.797 91.6297H307.795C307.795 91.6297 307.795 91.6297 307.795 91.6297Z" fill="#F8B91E"/>
<path d="M304.988 150.022C304.454 150.022 303.931 149.88 303.47 149.612C302.771 149.209 302.262 148.542 302.057 147.761C301.847 146.981 301.957 146.149 302.363 145.451C302.765 144.751 303.431 144.241 304.21 144.035C304.989 143.825 305.819 143.935 306.515 144.342C307.214 144.745 307.723 145.412 307.929 146.193C308.139 146.973 308.028 147.804 307.622 148.502C307.22 149.203 306.555 149.713 305.775 149.919C305.518 149.987 305.254 150.022 304.988 150.022Z" fill="#499D75"/>
</svg>
