<svg width="261" height="263" viewBox="0 0 261 263" fill="none" xmlns="http://www.w3.org/2000/svg">
<path d="M59.056 105.447C44.6055 145.15 64.442 189.536 103.564 203.775C142.686 218.014 186.969 196.966 201.419 157.263C215.87 117.56 195.272 73.5364 156.15 59.2971C117.028 45.0578 73.5066 65.7444 59.056 105.447Z" fill="#FEDB41"/>
<path d="M156.15 59.2972C195.272 73.5365 215.87 117.56 201.419 157.263L59.056 105.447C73.5066 65.7444 117.028 45.0579 156.15 59.2972Z" fill="#FEDB41"/>
<path d="M75.7392 111.519C64.7084 141.826 79.8633 175.974 109.727 186.844C139.59 197.713 173.705 181.498 184.736 151.191C195.767 120.884 179.851 87.0973 149.987 76.228C120.124 65.3587 86.7701 81.212 75.7392 111.519Z" fill="#FEA832"/>
<path d="M149.987 76.228C179.851 87.0973 195.767 120.884 184.736 151.191L75.7393 111.519C86.7701 81.212 120.124 65.3586 149.987 76.228Z" fill="#FEA832"/>
<path fill-rule="evenodd" clip-rule="evenodd" d="M128.87 121.27L127.33 125.503L110.646 119.431L112.187 115.198C113.05 112.827 115.562 111.633 117.898 112.483C123.403 114.487 126.485 106.021 120.979 104.018C114.056 101.498 106.403 105.135 103.845 112.162L102.305 116.395L98.1339 114.877C95.3809 113.875 93.1928 115.475 92.4225 117.591C91.6522 119.708 92.2997 122.34 95.0527 123.342L99.2235 124.86L97.4775 129.657C94.9199 136.684 98.4443 144.39 105.368 146.91L113.71 149.946C120.634 152.466 128.286 148.829 130.844 141.802L132.59 137.004L149.829 143.279L148.083 148.076C147.22 150.447 144.708 151.641 142.372 150.791C136.867 148.787 133.785 157.253 139.291 159.256C146.214 161.776 153.867 158.139 156.425 151.112L158.171 146.315L162.342 147.833C165.095 148.835 167.283 147.235 168.053 145.119C168.823 143.002 168.176 140.37 165.423 139.368L161.252 137.85L162.793 133.617C165.35 126.59 161.826 118.885 154.902 116.365L146.004 113.126C139.08 110.606 131.428 114.243 128.87 121.27ZM124.248 133.968L122.502 138.765C121.639 141.136 119.127 142.33 116.791 141.48L108.449 138.444C106.113 137.594 104.956 135.064 105.819 132.693L107.565 127.896L124.248 133.968ZM154.451 130.581C155.314 128.21 154.157 125.68 151.821 124.83L142.923 121.592C140.587 120.741 138.075 121.936 137.212 124.306L135.671 128.539L152.91 134.814L154.451 130.581Z" fill="#FEDB41"/>
<path fill-rule="evenodd" clip-rule="evenodd" d="M127.33 125.503L128.87 121.27C131.428 114.243 139.08 110.606 146.004 113.126L154.902 116.365C161.826 118.885 165.35 126.59 162.793 133.617L161.252 137.85L165.423 139.368C168.176 140.37 168.823 143.002 168.053 145.119L92.4225 117.591C93.1928 115.475 95.3809 113.875 98.1339 114.877L102.305 116.395L103.845 112.162C106.403 105.135 114.056 101.498 120.979 104.018C126.485 106.022 123.403 114.487 117.898 112.483C115.562 111.633 113.05 112.827 112.187 115.198L110.646 119.431L127.33 125.503ZM154.451 130.581C155.314 128.21 154.157 125.68 151.821 124.83L142.923 121.592C140.587 120.741 138.075 121.936 137.212 124.306L135.671 128.539L152.91 134.814L154.451 130.581Z" fill="#FEDB41"/>
</svg>
