<svg width="304" height="298" viewBox="0 0 304 298" fill="none" xmlns="http://www.w3.org/2000/svg">
<rect x="55" y="81" width="187" height="216" rx="11.25" fill="#C5CCEC"/>
<rect x="69" y="96" width="159" height="154" fill="white"/>
<path d="M244.756 268L240 259.389L254.252 252L259 260.611L244.756 268Z" fill="#E0A396"/>
<path d="M240.618 257L247.528 268.07C247.528 268.07 245.173 269.711 246.979 273.438C248.784 277.166 248.095 280.216 245.706 282L232 260.058C234.762 258.767 237.649 257.742 240.618 257Z" fill="white"/>
<path d="M232.436 261.597L245.587 283.974L244.034 284.94L230.884 262.563L232.436 261.597Z" fill="#070924"/>
<path d="M237.358 258C237.358 258 239.484 262.079 236 264" stroke="#070924" stroke-width="0.81"/>
<path d="M247 270C247 270 246.643 269.514 245 269" stroke="#070924" stroke-width="0.81" stroke-linecap="round" stroke-linejoin="round"/>
<path d="M247 272C246.52 271.467 245.802 271.108 245 271" stroke="#070924" stroke-width="0.81" stroke-linecap="round" stroke-linejoin="round"/>
<path d="M271.884 189C271.884 189 280.138 221.321 281.348 227.699C282.558 234.076 284.993 246.816 279.889 251.41C274.785 256.004 255.206 267 255.206 267L248 253.43L259.636 246.099L271.884 189Z" fill="#1C3259"/>
<path d="M262.342 290H253L254.658 273H264L262.342 290Z" fill="#E0A396"/>
<path d="M251.676 287H264.289C264.289 287 264.499 289.569 268.488 289.964C272.477 290.358 274.697 292.336 275 295H250C250.276 292.288 250.838 289.608 251.676 287Z" fill="white"/>
<rect x="250" y="296" width="25" height="2" fill="#070924"/>
<path d="M251 291C251 291 256 291.548 256 296" stroke="#070924" stroke-width="0.81"/>
<path d="M265 290C265 290 264.333 290 263 291" stroke="#070924" stroke-width="0.81" stroke-linecap="round" stroke-linejoin="round"/>
<path d="M267 290C266.224 290.063 265.505 290.423 265 291" stroke="#070924" stroke-width="0.81" stroke-linecap="round" stroke-linejoin="round"/>
<path d="M275 200.005L272.17 189L256.488 189.089C248.648 194.446 251.51 211.973 251.51 211.973C252.443 221.424 254.928 230.098 255.101 237.866L251.031 280H265.623L272.601 242.64C272.898 240.932 273.032 239.197 273.001 237.462L272.452 205.62L275 200.005Z" fill="#233E80"/>
<path d="M273 173.66L285.841 174C288.091 173.788 289.968 172.147 290.526 169.903C291.317 166.745 291.443 164.429 288.29 163.96L273.561 162L273 173.66Z" fill="#EABA8F"/>
<path d="M263 174.068C267.578 175.882 272.435 176.874 277.351 177L278 161.777L263.666 160L263 174.068Z" fill="white"/>
<path d="M281.531 167.295L292.866 143L298 143.793L289.849 170.912C289.012 172.668 287.283 173.842 285.324 173.985C283.366 174.128 281.481 173.218 280.391 171.602C279.332 170.024 280.664 169.024 281.531 167.295Z" fill="#EABA8F"/>
<path d="M292.666 145.992L290.535 141.785C290.059 141.098 289.891 140.253 290.07 139.443L291.376 135.966C291.486 135.575 291.775 135.255 292.16 135.1C292.545 134.945 292.982 134.971 293.344 135.172C293.702 135.377 293.92 135.753 293.916 136.157L293.761 138.538L294.953 140.229L302 140.126C302 140.126 302 143.388 297.876 146.397L295.116 147L292.666 145.976V145.992Z" fill="#EABA8F"/>
<path d="M303.986 127.776L301.036 143.336C300.96 143.757 300.583 144.044 300.173 143.994L292.68 143.036C292.467 143.006 292.276 142.887 292.15 142.708C292.024 142.528 291.974 142.303 292.013 142.085L294.939 126.646C295.022 126.239 295.387 125.962 295.787 126.004L303.304 126.817C303.521 126.842 303.717 126.96 303.847 127.142C303.976 127.324 304.027 127.554 303.986 127.776Z" fill="#13223D"/>
<path d="M300.993 128.414L299.044 141.496C299.007 141.804 298.776 142.024 298.517 141.998L293.466 141.564C293.322 141.553 293.189 141.468 293.102 141.331C293.015 141.194 292.981 141.019 293.01 140.85L295.223 127.488C295.273 127.181 295.511 126.971 295.771 127.003L300.559 127.726C300.695 127.745 300.818 127.829 300.9 127.959C300.982 128.089 301.016 128.254 300.993 128.414Z" fill="white"/>
<path d="M262.693 160C262.693 160 271.67 161.882 273.865 169.696C274.533 172.088 272.507 188.912 272.507 188.912L257.161 189C257.161 189 254.575 183.586 251.789 178.291C249.004 172.997 248.889 164.968 255.687 162.344L262.693 160Z" fill="white"/>
<path d="M273.841 177C273.841 177 274.801 169.704 272 166" stroke="#ECECF6" stroke-width="1.07"/>
<path d="M250.277 187.872L246.69 217L241.785 216.49C241.785 216.49 240.15 194.252 241.599 186.364C241.963 184.448 243.303 182.884 245.103 182.272C246.904 181.66 248.885 182.097 250.285 183.413C251.68 184.681 250.673 185.981 250.277 187.872Z" fill="#EABA8F"/>
<path d="M247.953 220.905C248.098 221.478 247.902 222.079 247.439 222.486C247.18 222.729 246.805 222.835 246.442 222.768C246.079 222.7 245.779 222.468 245.645 222.152L245.362 221.581C244.673 222.03 243.702 223.232 244.532 227.034C244.671 227.655 244.328 228.283 243.702 228.554C243.259 228.716 242.754 228.541 242.539 228.151C242.535 228.131 242.535 228.111 242.539 228.091C242.439 228.466 242.158 228.78 241.775 228.942C241.332 229.1 240.831 228.926 240.612 228.539C240.577 228.486 240.546 228.43 240.521 228.372C240.398 228.518 240.235 228.631 240.048 228.699C239.605 228.86 239.101 228.685 238.885 228.296C238.816 228.179 238.765 228.054 238.736 227.923C238.74 227.875 238.74 227.827 238.736 227.779H238.686C238.243 227.94 237.739 227.765 237.523 227.376C237.447 227.261 237.394 227.135 237.365 227.003C237.147 226.045 237.025 225.07 237 224.091V224.053C237 223.627 237 223.232 237.058 222.844C237.183 221.026 239.923 218.646 241.26 216L246.517 216.487L247.953 220.905Z" fill="#EABA8F"/>
<path d="M245.553 172L241.367 182.722C240.531 184.888 241.154 187.339 242.926 188.858C245.438 190.989 247.481 192.1 249.361 189.441L256 176.992L245.553 172Z" fill="#EABA8F"/>
<path d="M253.365 164C253.365 164 247.322 167.947 244 177.287L255.075 183L262 173.543L253.365 164Z" fill="white"/>
<path d="M253 181L258 173" stroke="#ECECF6" stroke-width="1.07"/>
<path d="M240.442 148.999C244.028 149.04 246.969 146.62 247 143.578C247.03 140.536 244.151 138.05 240.558 138.001C236.964 137.952 234.031 140.389 234 143.422C233.97 146.456 236.849 148.959 240.442 148.999Z" fill="#DF7658"/>
<path d="M245.142 146.798C246.687 148.377 249.219 148.404 250.798 146.859C252.376 145.314 252.404 142.782 250.86 141.203C249.315 139.624 246.783 139.596 245.204 141.14C244.445 141.882 244.012 142.895 244 143.956C243.989 145.018 244.399 146.04 245.142 146.798Z" fill="white"/>
<path d="M263.189 152.884L264 163L255.139 162.428L254 148L263.189 152.884Z" fill="#EABA8F"/>
<path d="M263 159C263 158.825 259 154 259 154L262.711 154.112L263 159Z" fill="#1F120B"/>
<path d="M257.98 133.17C257.98 133.17 262.208 131.78 264.866 136.952C264.866 136.952 266.753 140.718 269.425 146.156C270.114 147.519 270.188 149.145 269.626 150.573C269.063 152.002 267.927 153.078 266.537 153.497C264.525 154.066 262.422 154.154 260.375 153.753L257.064 152.686C248.861 149.16 249 136.439 257.364 133.385L257.98 133.17Z" fill="#EABA8F"/>
<path d="M266 142L269.337 143.314C269.937 143.471 270.201 144.382 269.828 144.637L267.846 146L266 142Z" fill="#EABA8F"/>
<path d="M256.541 145.064C256.541 145.064 249.447 133.505 262 133.219C262 133.219 253.804 128.545 246.794 137.502C245.262 139.71 244.674 142.511 245.174 145.211C246.543 151.019 250.846 149.934 254.868 155C254.868 155 257.218 153.156 256.313 148.939C256.247 147.642 256.323 146.342 256.541 145.064Z" fill="#DF7658"/>
<path d="M258.357 137C260.063 146.153 257.834 148 257.834 148L253 140.428L258.357 137Z" fill="#DF7658"/>
<path d="M252.214 148.11C252.663 149.238 253.747 149.984 254.961 150C256.175 150.016 257.279 149.298 257.757 148.182C258.236 147.067 257.994 145.773 257.146 144.904C256.298 144.035 255.01 143.764 253.884 144.216C252.349 144.832 251.602 146.574 252.214 148.11Z" fill="#EABA8F"/>
<path d="M257 146C257 146 256.392 144.386 255 145.259" stroke="#0E1921" stroke-width="0.58" stroke-linecap="round" stroke-linejoin="round"/>
<path d="M263.803 140.483C263.803 140.483 264.712 139.615 264.984 140.206C264.984 140.206 265.159 140.606 264.362 141.335C263.564 142.064 263.298 142.141 263.059 141.819C262.82 141.496 263.357 140.851 263.803 140.483Z" fill="#1F120B"/>
<path d="M265.018 143.637C265.093 143.9 265.365 144.054 265.63 143.983C265.894 143.911 266.052 143.642 265.984 143.377C265.917 143.112 265.649 142.95 265.383 143.014C265.251 143.047 265.138 143.132 265.069 143.249C265.001 143.366 264.982 143.506 265.018 143.637Z" fill="#1F120B"/>
<path d="M267 147.037C267 147.037 266.596 148.277 265 147.887" stroke="#0E1921" stroke-width="0.58" stroke-linecap="round" stroke-linejoin="round"/>
<path d="M253 133.12C253 133.12 258.981 127.089 265 135.372L253.847 142L253 133.12Z" fill="#DF7658"/>
<path d="M259.661 160.405L256 162.477L266.968 165C267.403 164.178 263.306 159 263.306 159L259.661 160.405Z" fill="#EABA8F"/>
<path d="M55.0031 272.374L67.2115 269.212C70.9673 268.651 74.0855 269.07 75.8274 272.113C75.9129 272.263 75.9984 272.429 76.084 272.595C77.1958 274.985 77.2999 277.732 76.3722 280.201C75.4445 282.671 73.5653 284.649 71.1695 285.677L56.7761 292H29L30.944 274.397L55.0031 272.374Z" fill="#1C3259"/>
<path d="M48.0322 292.961L49.3609 291.937L51.86 289.37C52.0897 289.13 52.4257 288.995 52.7774 289L66.222 289.327C68.432 289.555 70.0759 291.272 69.9973 293.271C69.9186 295.27 68.1438 296.879 65.9214 296.965H65.1306C59.4048 296.965 47.9057 297.043 48.0006 296.965C48.0955 296.887 48.0322 292.961 48.0322 292.961Z" fill="#070924"/>
<path d="M11.6607 281C11.6607 281 52.8526 287.237 52.9952 287.709C53.1378 288.181 50.0326 298 50.0326 298H11.6607C11.6607 298 0.570605 297.039 2.15491 287.562C2.15491 287.562 3.66 281.358 11.6607 281Z" fill="#233E80"/>
<path d="M35.8739 230C35.8739 230 30.1157 231.605 28.2042 241.523C26.2926 251.441 23.9675 261.046 23.9675 261.046L11 271.79L20.6983 275L34.2276 265.042L41 245.278L35.8739 230Z" fill="white"/>
<path d="M46.8252 229L56.3821 231.052C59.4787 232.038 61.4119 235.234 60.9253 238.561L55.8653 272.94L32 275L32.6094 236.91C32.5538 233.336 35.181 230.333 38.6104 230.05L46.8252 229Z" fill="white"/>
<path d="M33 242L32 267" stroke="#ECECF6" stroke-width="1.06"/>
<path d="M34.7803 287L49.1438 281.226C49.6857 281.009 50.0294 280.469 49.998 279.884C49.9663 279.249 49.4995 278.721 48.8749 278.614L28.8719 275L10 281.893L34.7803 287Z" fill="#EBEBEB"/>
<path d="M32.2602 269L23.9475 270.368C23.2671 270.409 22.6571 270.86 22.3459 271.552L20.2105 276.056C19.9185 276.672 19.931 277.418 20.2434 278.021C20.5558 278.624 21.1224 278.996 21.7358 279C22.405 279.011 23.0197 278.58 23.3145 277.894L24.3059 275.62C24.3059 275.62 30.0867 279.723 33 274.47L32.2602 269Z" fill="#D39563"/>
<path d="M33 269.039L38.0539 267L40 272.559L33.74 274L33 269.039Z" fill="#D39563"/>
<path d="M26.2522 272.213L35 287L10.5297 281.758L0.196396 266.358C-0.0384838 266.081 -0.0655064 265.673 0.130562 265.365C0.32663 265.056 0.696689 264.924 1.03212 265.043L23.5576 270.22C24.677 270.475 25.6495 271.194 26.2522 272.213Z" fill="white"/>
<path d="M57.0301 230C57.0301 230 65.1611 233.117 64.9976 242.272C64.873 249.079 63.7125 262.513 63.2296 268.126C63.0673 270.032 61.7991 271.635 60.0442 272.151L37.2789 274L34 267.062L52.6219 261.801L52.988 240.08L57.0301 230Z" fill="white"/>
<path d="M34 268L52.6874 262.76L53 247" stroke="#ECECF6" stroke-width="1.06"/>
<path d="M34.12 222.266C34.9945 218.326 35.7246 212.972 35.6042 210.674L42.2872 206.701C42.2872 206.701 45.2476 215.572 45.7129 221.51L50.0291 220.836L48.8578 208.245L47.1168 199C58.108 199.812 61.0282 212.648 61.0282 212.648C62.6328 221.112 62.705 224.833 57.6908 226.303L57.4902 226.352L56.8163 226.531C56.4392 226.612 56.0782 226.677 55.7413 226.726C50.6776 227.707 45.523 228.123 40.3697 227.969H39.9606C36.6793 227.725 33.3178 225.726 34.12 222.266Z" fill="#13223D"/>
<path d="M35.0518 209.778C35.439 216.003 40.5616 219.36 46.8539 218.969C53.1463 218.578 57.3412 214.797 56.9782 208.572C56.4927 202.299 51.0923 197.593 44.8775 198.028C36.2215 198.443 34.6726 203.561 35.0518 209.778Z" fill="#13223D"/>
<path d="M40.9917 214.775C41.1129 216.412 39.8984 217.843 38.2649 217.988C36.6314 218.133 35.1844 216.938 35.0161 215.305C34.8478 213.672 36.0206 212.206 37.6492 212.014C39.3332 211.854 40.8287 213.089 40.9917 214.775Z" fill="#C27F49"/>
<path d="M43 221.783L43.2968 231.316C43.3746 233.841 44.6609 232.81 46.7528 232.696C48.5409 232.599 51.1488 233.248 50.9934 231.031L49.9191 217L43 221.783Z" fill="#D39563"/>
<path d="M43.1886 228L49.9795 221.84C50.4398 219.744 43 222.23 43 222.23L43.1886 228Z" fill="#1F120B"/>
<path d="M44.0803 222.995C40.1866 223.147 36.7836 219.974 36.5422 216.568L36.0282 208.536C35.6785 204.321 38.6174 200.573 42.6864 200.045C46.7981 199.587 51.1979 202.68 51.634 207.058L51.9844 213.548C52.2637 218.385 48.7599 222.573 44.0803 222.995Z" fill="#D39563"/>
<path d="M41.208 216L41 218H42" stroke="#040906" stroke-width="0.51" stroke-linecap="round" stroke-linejoin="round"/>
<path d="M44.9336 211.003C44.9336 211.003 42.9906 210.926 43 211.543C43 211.543 43 211.95 44.7177 211.992C46.4354 212.034 46.8483 211.915 46.9891 211.522C47.1299 211.129 45.8722 210.982 44.9336 211.003Z" fill="#040906"/>
<path d="M38.9441 211.026C38.9441 211.026 39.9033 210.847 39.9992 211.427C39.9992 211.427 40.0556 211.821 39.2149 211.95C38.3743 212.079 38.0865 211.95 38.0075 211.635C37.9285 211.32 38.4871 211.055 38.9441 211.026Z" fill="#040906"/>
<path d="M39.9988 215.471C40.0111 215.648 39.9274 215.817 39.7792 215.916C39.6311 216.014 39.4409 216.027 39.2805 215.95C39.12 215.872 39.0136 215.716 39.0013 215.54C38.9815 215.265 39.1882 215.025 39.4657 215.001C39.5995 214.993 39.731 215.038 39.831 215.127C39.931 215.215 39.9914 215.339 39.9988 215.471Z" fill="#040906"/>
<path d="M45.9943 213.468C46.0225 213.64 45.9442 213.813 45.7918 213.914C45.6393 214.015 45.4385 214.028 45.2725 213.947C45.1065 213.867 45.0033 213.706 45.0057 213.532C44.9775 213.36 45.0558 213.187 45.2082 213.086C45.3607 212.985 45.5615 212.972 45.7275 213.053C45.8935 213.133 45.9967 213.294 45.9943 213.468Z" fill="#040906"/>
<path d="M41 218.103L46 218C46 218 45.7117 219.028 43.1351 218.999C41.2072 218.976 41 218.103 41 218.103Z" fill="white"/>
<path d="M48 207C48.0505 207.303 48.101 212.309 50.8053 213.91C52.3918 214.843 54 208.197 54 208.197L48 207Z" fill="#13223D"/>
<path d="M56.9835 213.703C57.1522 215.313 56.0063 216.764 54.4012 216.973C53.1895 217.137 51.9997 216.549 51.3939 215.486C50.7882 214.424 50.8878 213.1 51.6458 212.14C52.4037 211.181 53.6682 210.777 54.8416 211.121C56.0151 211.465 56.8626 212.486 56.9835 213.703Z" fill="#D39563"/>
<path d="M53.0038 215C53.0038 215 52.8827 212.885 54 213.005" stroke="#040906" stroke-width="0.51" stroke-linecap="round" stroke-linejoin="round"/>
<path d="M36 203.595C36 203.595 39.5395 211.921 51.3014 209.587C51.3014 209.587 54.6764 210.754 53.8777 207.561C53.079 204.368 47.0023 200 47.0023 200L41.5207 200.662L36 203.595Z" fill="#13223D"/>
<path d="M42 201.369C42 201.369 36.4111 203.213 36.7212 208L36 205.072L37.738 201.735L38.5817 200.812L40.6442 200L42 201.369Z" fill="#13223D"/>
<path d="M39.5186 229.455C39.5186 229.455 49.028 227.985 56 230.329C56 230.329 55.1407 234.862 46.7176 234.994C45.1376 235.043 43.5636 234.793 42.0966 234.259C40.1509 233.488 37.9864 232.026 39.5186 229.455Z" fill="#D39563"/>
<path d="M145.565 61.5041L167.275 41L177 48.9715L155.023 76.9168C149.61 82.9138 137.913 84.26 133.61 77.3737C133 76.4027 133.61 75.1136 133 73.8734L145.565 61.5041Z" fill="#3962B2"/>
<path d="M183 75.9834L174.085 76L170 59.025L178.915 59L183 75.9834Z" fill="#E0A396"/>
<path d="M173.508 73H185.113C185.113 73 185.307 75.5584 188.999 75.9386C192.691 76.3188 194.705 78.3149 195 80.9525L172 81C172.241 78.289 172.746 75.6091 173.508 73Z" fill="#070924"/>
<path d="M171.516 80.8559L194.741 80.8058L194.744 82.5099L171.519 82.5599L171.516 80.8559Z" fill="white"/>
<path d="M172 77C172 77 176.991 77.4316 177 81" stroke="white" stroke-width="0.74"/>
<path d="M186 75C186 75 185.331 75 184 76" stroke="white" stroke-width="0.74" stroke-linecap="round" stroke-linejoin="round"/>
<path d="M188 75C187.221 75.0636 186.501 75.4236 186 76" stroke="white" stroke-width="0.74" stroke-linecap="round" stroke-linejoin="round"/>
<path d="M164 46.2751L169.304 69L183 67.1495L178.138 45.9099C177.216 39.8635 174.347 39.06 172.101 39.0032C166.325 38.8246 164 46.2751 164 46.2751Z" fill="#3962B2"/>
<path d="M193 97.4807L187.172 104L176 92.5193L181.821 86L193 97.4807Z" fill="#E0A396"/>
<path d="M184 102.496L192.148 93.928C192.148 93.928 194.187 95.4858 197.061 93.0556C199.935 90.6254 202.817 90.4463 205 92.0119L188.849 109C187.019 106.99 185.395 104.812 184 102.496H184Z" fill="#070924"/>
<path d="M188.64 109.775L204.423 92.2439L205.638 93.4019L189.855 110.933L188.64 109.775Z" fill="white"/>
<path d="M187 106C187 106 190.326 103.977 193 105.685" stroke="white" stroke-width="0.74"/>
<path d="M193.94 95C193.94 95 193.3 95.4533 193.06 97" stroke="white" stroke-width="0.74" stroke-linecap="round" stroke-linejoin="round"/>
<path d="M195.928 95C195.261 95.5656 194.965 96.2869 195.108 97" stroke="white" stroke-width="0.74" stroke-linecap="round" stroke-linejoin="round"/>
<path d="M170.61 68L190 89.4753L178.784 101L155 76.0947L170.61 68Z" fill="#3963DA"/>
<path d="M144.532 65L128.073 69.6451C127.831 71.4732 128.195 73.3291 129.111 74.9393C131.306 79.0291 135.784 82.3057 140.493 81.9773H164.982C168.079 81.9776 170.901 80.2304 172.229 77.4886C173.367 75.1323 173.239 72.3772 171.888 70.1316C170.538 67.886 168.139 66.4416 165.484 66.2747L144.532 65Z" fill="#3963DA"/>
<path d="M147 23.5627L143.154 32L136 27.5391L141.804 15L147 23.5627Z" fill="#EABA8F"/>
<path d="M143.579 29C143.628 28.8423 143 23 143 23L145 24.7956L143.579 29Z" fill="#1F120B"/>
<path d="M150.518 6.46058C150.518 6.46058 154.394 7.61185 153.967 12.5105C153.967 12.5105 153.611 16.0493 153.065 21.1489C152.944 22.4348 152.229 23.5966 151.123 24.3049C150.018 25.0133 148.642 25.1912 147.386 24.7881C145.584 24.1804 143.941 23.1909 142.577 21.8906L140.567 19.5031C135.988 12.9818 142.149 4.25077 149.949 6.30605L150.518 6.46058Z" fill="#EABA8F"/>
<path d="M153.501 17L154.914 18.4907C155.007 18.5843 155.026 18.7161 154.963 18.8265C154.901 18.9369 154.768 19.0049 154.625 18.9997L153 18.9634L153.501 17Z" fill="#EABA8F"/>
<path d="M136.296 9.28991C136.907 7.28035 139.167 5.23138 141.148 4.60092C145.912 2.96335 151.164 4.75391 154 8.98257C141.194 3.86802 144.962 15.0349 144.962 15.0349C144.205 15.8336 143.538 16.7165 142.974 17.667C141.573 21.3158 139.229 20.9927 139.229 20.9927C136.961 15.3659 135.298 12.584 136.296 9.28991Z" fill="#13223E"/>
<path d="M151.009 12.0043C151.009 12.0043 151.983 11.9645 152 12.5691C152 12.5691 152 12.9827 151.152 12.9986C150.304 13.0145 150.081 12.8952 150.006 12.5054C149.932 12.1157 150.55 11.9725 151.009 12.0043Z" fill="black"/>
<path d="M152.007 16.5651C152.024 16.7456 152.146 16.9014 152.322 16.9673C152.498 17.0332 152.697 16.9979 152.837 16.8761C152.977 16.7543 153.033 16.567 152.981 16.3926C152.959 16.2681 152.886 16.1572 152.779 16.0849C152.671 16.0126 152.537 15.9848 152.408 16.0079C152.139 16.0582 151.961 16.3057 152.007 16.5651Z" fill="black"/>
<path d="M150.025 20L152 21.4285C152 21.4285 151.696 22.4193 150.749 21.7918C150.205 21.4606 149.909 20.7279 150.025 20V20Z" fill="#FDFDFF"/>
<path d="M143.718 16.4112C144.969 16.1807 145.858 15.0013 145.788 13.6661L145.57 9.64268C145.57 9.64268 150.036 12.6992 151.141 8.78228C151.141 8.78228 156.937 10.2327 156.999 6.20926C157.061 2.18585 153.521 2.22683 145.741 2.11211C145.741 2.11211 146.807 0.399494 145.57 0.0389441C144.333 -0.321606 142.543 1.94003 142.543 1.94003C142.543 1.94003 141.921 -0.247857 140.692 0.0963043C139.462 0.440466 139.229 2.16127 139.229 2.16127C139.229 2.16127 129.978 3.24292 134.024 13.1335L137.813 21L141.874 15.3787L143.718 16.4112Z" fill="#13223E"/>
<path d="M140.056 14.9769C139.844 15.9656 140.249 16.9845 141.081 17.5584C141.914 18.1322 143.01 18.1481 143.859 17.5985C144.708 17.049 145.142 16.0423 144.959 15.0479C144.776 14.0535 144.012 13.2672 143.023 13.0558C141.673 12.7671 140.344 13.6272 140.056 14.9769Z" fill="#EABA8F"/>
<path d="M142.976 17C142.976 17 143.243 15.0956 142 15" stroke="black" stroke-width="0.53" stroke-linecap="round" stroke-linejoin="round"/>
<path d="M143.373 31.2273C143.373 31.2273 144.645 35.6159 143.821 43.6187C142.997 51.6215 147 60.0196 147 60.0196C147 60.0196 147.086 72.395 127.014 73C127.014 73 122.304 54.7194 124.659 41.1501C126.779 28.7264 135.971 27 135.971 27L143.373 31.2273Z" fill="#FDFDFF"/>
<path d="M138.851 30L164 36.6438L163.215 47L137 45.2444L138.851 30Z" fill="#FDFDFF"/>
<path d="M145 45.86L137 45.14" stroke="#ECECF6" stroke-width="0.98"/>
<path d="M162.761 36.7979L175.474 28L181 30.6259L162 47L162.761 36.7979Z" fill="#EABA8F"/>
<path d="M180.202 27.5629L173.463 27.9925C173.064 28.0352 172.668 27.8941 172.385 27.6086C172.102 27.3232 171.964 26.9243 172.008 26.5242L173.098 12.1072C173.189 11.21 173.906 10.5067 174.802 10.4359L181.532 10.0063C181.928 9.9677 182.32 10.1077 182.603 10.3884C182.886 10.6691 183.029 11.0613 182.995 11.4589L181.906 25.876C181.816 26.7763 181.1 27.4849 180.202 27.5629Z" fill="black"/>
<path d="M177.432 29.6235C180.201 30.7328 182.363 29.3065 183.444 26.4541C184.525 23.6016 184.129 20.4876 181.368 19.3783C179.571 18.6621 177.536 18.9767 176.029 20.2035C174.522 21.4304 173.772 23.3831 174.061 25.3261C174.351 27.2691 175.636 28.9073 177.432 29.6235Z" fill="#EABA8F"/>
<path d="M180.202 27.5629L173.463 27.9925C173.064 28.0352 172.668 27.8941 172.385 27.6086C172.102 27.3232 171.964 26.9243 172.008 26.5242L173.098 12.1072C173.189 11.21 173.906 10.5067 174.802 10.4359L181.532 10.0063C181.928 9.9677 182.32 10.1077 182.603 10.3884C182.886 10.6691 183.029 11.0613 182.995 11.4589L181.906 25.876C181.816 26.7763 181.1 27.4849 180.202 27.5629Z" fill="black"/>
<path d="M177.432 29.6235C180.201 30.7328 182.363 29.3065 183.444 26.4541C184.525 23.6016 184.129 20.4876 181.368 19.3783C179.571 18.6621 177.536 18.9767 176.029 20.2035C174.522 21.4304 173.772 23.3831 174.061 25.3261C174.351 27.2691 175.636 28.9073 177.432 29.6235Z" fill="#EABA8F"/>
</svg>
