<svg width="157" height="237" viewBox="0 0 157 237" fill="none" xmlns="http://www.w3.org/2000/svg">
<path d="M74.8878 211.007C74.4851 214.012 72.9088 216.733 70.5074 218.566L48.627 235.285C44.8801 238.113 39.5663 237.366 36.7338 233.612C33.9013 229.859 34.6136 224.508 38.328 221.636L55.9932 208.145C58.5456 206.209 62.1722 206.708 64.1142 209.262C65.9717 211.848 65.4802 215.446 62.9982 217.432L50.0143 227.355C49.2271 227.957 48.1044 227.802 47.5067 227.01C46.9091 226.218 47.0627 225.088 47.85 224.487L60.8382 214.565C61.7923 213.809 61.9826 212.43 61.2691 211.441C60.5258 210.458 59.1324 210.266 58.154 211.012L40.496 224.504C38.3788 226.195 37.9614 229.264 39.5495 231.464C41.2015 233.647 44.2976 234.074 46.472 232.418L68.3473 215.703C71.7779 213.082 72.4474 208.16 69.8428 204.708C67.2382 201.256 62.3457 200.582 58.9151 203.203L42.6208 215.65C42.1122 216.048 41.4305 216.14 40.8358 215.891C40.241 215.642 39.825 215.091 39.7466 214.448C39.6681 213.805 39.9392 213.169 40.4565 212.783L56.7515 200.335C60.4145 197.531 65.3967 197.226 69.3701 199.563C73.3436 201.901 75.5238 206.419 74.8921 211.006L74.8878 211.007Z" fill="#007AFF"/>
<path fill-rule="evenodd" clip-rule="evenodd" d="M133.273 55.5626C101.787 63.4749 79.681 91.926 79.639 124.591H79.6375C79.6795 156.998 101.446 185.293 132.607 193.448C135.324 194.139 137.045 196.831 136.545 199.607V199.612C136.281 201.068 135.43 202.349 134.193 203.15C132.956 203.951 131.445 204.2 130.019 203.837C93.9597 194.487 68.8205 161.674 69.001 124.194C69.1814 86.7146 94.6353 54.1488 130.783 45.1503C132.212 44.8019 133.721 45.0653 134.95 45.878C136.179 46.6906 137.018 47.9797 137.268 49.4383V49.4433C137.742 52.2229 135.996 54.8971 133.273 55.5626ZM150.296 131.339C153.998 131.339 157 128.317 157 124.591C157 120.863 153.998 117.842 150.295 117.842C146.592 117.843 143.591 120.864 143.591 124.591C143.591 128.318 146.593 131.339 150.296 131.339ZM96.6732 124.591C96.7044 148.4 112.21 169.386 134.857 176.267C136.302 176.696 137.861 176.488 139.145 175.692C140.428 174.897 141.316 173.59 141.586 172.098C142.07 169.403 140.462 166.773 137.853 165.994C119.645 160.455 107.221 143.526 107.314 124.38C107.407 105.234 119.996 88.4276 138.258 83.0691C140.874 82.3152 142.506 79.6998 142.045 77.0005C141.789 75.505 140.914 74.1894 139.637 73.3819C138.361 72.5744 136.804 72.351 135.354 72.7675C112.458 79.481 96.704 100.588 96.6718 124.591H96.6732ZM138.887 149.919C129.012 145.408 122.666 135.506 122.656 124.591H122.655C122.666 113.582 129.119 103.613 139.12 99.1559C140.62 98.4739 142.348 98.5268 143.804 99.2991C145.26 100.072 146.28 101.477 146.568 103.108C146.975 105.558 145.668 107.971 143.402 108.954C137.284 111.681 133.326 117.768 133.292 124.502C133.258 131.237 137.153 137.364 143.243 140.154C145.504 141.158 146.792 143.586 146.364 146.036C146.061 147.662 145.029 149.057 143.568 149.816C142.107 150.575 140.38 150.613 138.887 149.919Z" fill="#8DBFFC"/>
<mask id="mask0_0_11" style="mask-type:alpha" maskUnits="userSpaceOnUse" x="41" y="0" width="46" height="46">
<path fill-rule="evenodd" clip-rule="evenodd" d="M41.2782 46V0.278515H86.9554V46H41.2782Z" fill="white"/>
</mask>
<g mask="url(#mask0_0_11)">
<path fill-rule="evenodd" clip-rule="evenodd" d="M64.1168 0.278576C76.7303 0.278576 86.9554 10.5136 86.9554 23.1393C86.9554 35.7651 76.7303 46.0001 64.1168 46.0001C51.5035 46.0001 41.2781 35.7651 41.2781 23.1393C41.2781 10.5136 51.5035 0.278576 64.1168 0.278576Z" fill="#F37168"/>
</g>
<path fill-rule="evenodd" clip-rule="evenodd" d="M56.1407 23.2247C56.1407 23.2247 49.2526 31.275 55.8707 36.9731C64.9551 44.7949 76.5111 23.2247 76.5111 23.2247C76.5111 23.2247 64.5851 1.26696 55.3954 8.94833C48.4461 14.7572 56.1407 23.2247 56.1407 23.2247Z" fill="white"/>
<mask id="mask1_0_11" style="mask-type:alpha" maskUnits="userSpaceOnUse" x="0" y="102" width="46" height="46">
<path fill-rule="evenodd" clip-rule="evenodd" d="M0.278076 148L0.278076 102.278H45.9783V148H0.278076Z" fill="white"/>
</mask>
<g mask="url(#mask1_0_11)">
<path fill-rule="evenodd" clip-rule="evenodd" d="M23.128 102.278C35.7479 102.278 45.9783 112.514 45.9783 125.139C45.9783 137.765 35.7479 148 23.128 148C10.5085 148 0.278076 137.765 0.278076 125.139C0.278076 112.514 10.5085 102.278 23.128 102.278Z" fill="#C1C765"/>
</g>
<path fill-rule="evenodd" clip-rule="evenodd" d="M34.7391 136.279C14.6288 139.616 14.1324 124.332 14.1324 124.332H8.17389L20.3708 112.222L32.1229 123.89H25.3047C25.3047 123.89 25.5529 129.756 28.7803 131.974C32.0081 134.193 34.7391 136.279 34.7391 136.279Z" fill="white"/>
</svg>
